<svg width="296" height="329" viewBox="0 0 296 329" fill="none" xmlns="http://www.w3.org/2000/svg">
<g clip-path="url(#clip0_2658_1852)">
<path d="M111 64.6992H36.9999L111 167.14L0 328.888H68.714L147.999 221.056L179.714 269.58H258.999L184.999 161.748L295.999 0H227.285L147.999 113.224L111 64.6992Z" fill="#7900FF" fill-opacity="0.5" stroke="#7900FF" stroke-opacity="0.5"/>
<path d="M124.703 71.3493H56.1849L124.703 166.96L21.9258 317.925H85.5499L158.962 217.282L188.327 262.571H261.74L193.221 161.928L295.999 10.9634H232.375L158.962 116.639L124.703 71.3493Z" fill="#BC7FFF" fill-opacity="0.5" stroke="#BC7FFF" stroke-opacity="0.5"/>
<path d="M138.409 77.9989H75.3719L138.409 166.781L43.8535 306.962H102.388L169.927 213.508L196.943 255.562H264.482L201.446 162.108L296.001 21.9263H237.467L169.927 120.053L138.409 77.9989Z" fill="#DDBFFF" fill-opacity="0.5" stroke="#DDBFFF" stroke-opacity="0.5"/>
</g>
<defs>
<clipPath id="clip0_2658_1852">
<rect width="296.001" height="328.888" fill="white"/>
</clipPath>
</defs>
</svg>
